<svg viewBox="0 0 512 512" xmlns="http://www.w3.org/2000/svg">
  <path d="M74.67 447.24C-31.33 335.74-30.7 161.35 75.9 47.54c27.09-25.3 59.21-44.65 95.29-57.87V.01h62.22v10.03c33.08 4.48 64.48 15.64 93.2 33.16 37.81 21.91 70.2 51.5 96.81 87.02 23.08 28.8 40.72 60.75 51.98 95.37 13.28 41.72 18.94 85.06 16.39 129.06h-61.96c1.8-29.2-2.26-59.56-12.22-88.31-12.64-37.91-33.87-70.64-62.43-96.08-26.31-23.21-57.03-41.08-91.53-52.87v238.48l145.43.05-8.04 62.87H74.67zM340.03 442.26c-43.83 0-79.36-35.53-79.36-79.37 0-43.82 35.53-79.35 79.36-79.35 43.83 0 79.36 35.53 79.36 79.35 0 43.84-35.53 79.37-79.36 79.37zm0-136.02c-22.34 0-40.39 18.06-40.39 40.38 0 22.33 18.05 40.38 40.39 40.38 22.33 0 40.38-18.05 40.38-40.38 0-22.32-18.05-40.38-40.38-40.38z" fill="#F7DF1E"/>
</svg>